<?xml version="1.0" encoding="UTF-8"?>
<svg version="1.1" xmlns="http://www.w3.org/2000/svg" width="1024" height="1024">
<path d="M0 0 C29.34205513 -0.91280308 59.04136143 1.96610144 87.72119141 8.12109375 C88.77661133 8.34667969 89.83203125 8.57226562 90.91943359 8.8046875 C118.39959332 14.80035871 145.34544887 23.31070258 170.90869141 35.08984375 C173.73717579 36.12695469 175.7390532 36.34036862 178.72119141 36.12109375 C178.72119141 37.11109375 178.72119141 38.10109375 178.72119141 39.12109375 C180.03627686 39.53294922 180.03627686 39.53294922 181.37792969 39.953125 C186.71411166 41.8173206 191.5947597 44.50631016 196.59619141 47.12109375 C197.71082764 47.70270264 198.82546387 48.28431152 199.97387695 48.88354492 C208.84174267 53.56019144 217.36222345 58.59476527 225.72119141 64.12109375 C227.27773437 65.13236328 227.27773437 65.13236328 228.86572266 66.1640625 C241.74262969 74.61927931 253.97058508 83.67780827 265.80566406 93.53027344 C267.56438909 94.99087148 269.33475778 96.43589821 271.10791016 97.87890625 C278.83864354 104.25453325 285.99520914 111.18608527 293.09619141 118.24609375 C293.57510834 118.71974365 294.05402527 119.19339355 294.54745483 119.68139648 C295.91071103 121.03300994 297.26536259 122.39328539 298.61962891 123.75390625 C299.41030762 124.54684082 300.20098633 125.33977539 301.015625 126.15673828 C302.72119141 128.12109375 302.72119141 128.12109375 302.72119141 130.12109375 C303.38119141 130.12109375 304.04119141 130.12109375 304.72119141 130.12109375 C306.13134766 131.484375 306.13134766 131.484375 307.78369141 133.43359375 C308.41146484 134.17351562 309.03923828 134.9134375 309.68603516 135.67578125 C310.6934375 136.88621094 310.6934375 136.88621094 311.72119141 138.12109375 C312.38248047 138.90742188 313.04376953 139.69375 313.72509766 140.50390625 C325.72425841 154.95593412 337.00919998 169.90422887 346.67822266 186.0234375 C347.17499512 186.84980713 347.67176758 187.67617676 348.18359375 188.52758789 C349.15012182 190.14502671 350.10783645 191.76777235 351.05566406 193.39624023 C351.49056152 194.12786377 351.92545898 194.8594873 352.37353516 195.61328125 C352.75501709 196.2666748 353.13649902 196.92006836 353.52954102 197.59326172 C354.73896995 199.43455809 354.73896995 199.43455809 357.72119141 200.12109375 C357.39119141 200.78109375 357.06119141 201.44109375 356.72119141 202.12109375 C357.81916554 204.69859735 357.81916554 204.69859735 359.48291016 207.640625 C360.10133789 208.79272461 360.71976563 209.94482422 361.35693359 211.13183594 C361.6912439 211.74973999 362.0255542 212.36764404 362.36999512 213.00427246 C385.35464687 255.69700028 399.77943491 302.03833075 405.72119141 350.12109375 C405.83301758 351.0037793 405.94484375 351.88646484 406.06005859 352.79589844 C417.34611806 444.11685278 394.71876768 539.3327934 340.88598633 621.59741211 C340.075448 622.82536499 340.075448 622.82536499 339.24853516 624.078125 C338.76118896 624.8100708 338.27384277 625.5420166 337.77172852 626.29614258 C336.55489279 628.05902701 336.55489279 628.05902701 336.72119141 630.12109375 C336.06119141 630.45109375 335.40119141 630.78109375 334.72119141 631.12109375 C335.26533691 631.45842529 335.80948242 631.79575684 336.37011719 632.14331055 C338.86509038 633.69371649 341.3556442 635.25108879 343.84619141 636.80859375 C344.70212891 637.33904297 345.55806641 637.86949219 346.43994141 638.41601562 C351.15657355 641.37298116 355.6494538 644.30968035 359.72119141 648.12109375 C359.72119141 648.78109375 359.72119141 649.44109375 359.72119141 650.12109375 C360.28193359 650.33121094 360.84267578 650.54132812 361.42041016 650.7578125 C364.51408976 652.59090958 366.40431814 655.1051588 368.53369141 657.93359375 C368.96875 658.50384277 369.40380859 659.0740918 369.85205078 659.66162109 C373.57143978 664.66417191 376.51913355 669.8824319 379.34619141 675.44140625 C380.71708284 678.2380716 380.71708284 678.2380716 382.72119141 681.12109375 C382.06119141 681.12109375 381.40119141 681.12109375 380.72119141 681.12109375 C381.21619141 682.31734375 381.71119141 683.51359375 382.22119141 684.74609375 C387.47432772 700.65488096 382.48679365 720.32172172 375.37744141 734.87109375 C366.10444423 751.35642207 350.14516165 763.56935502 332.09521484 768.95581055 C314.76213868 773.64048294 296.86483588 772.05840093 280.84619141 763.87109375 C268.89293076 756.92049404 257.98676055 747.65223203 251.72119141 735.12109375 C250.73119141 735.12109375 249.74119141 735.12109375 248.72119141 735.12109375 C249.05119141 733.47109375 249.38119141 731.82109375 249.72119141 730.12109375 C248.40119141 729.79109375 247.08119141 729.46109375 245.72119141 729.12109375 C246.38119141 728.79109375 247.04119141 728.46109375 247.72119141 728.12109375 C247.72119141 727.46109375 247.72119141 726.80109375 247.72119141 726.12109375 C243.01815829 728.81787266 238.63894755 731.92648857 234.22119141 735.05859375 C233.47482422 735.58388672 232.72845703 736.10917969 231.95947266 736.65039062 C228.89946705 738.81405831 225.89349175 740.98168264 222.97900391 743.33984375 C220.75634446 745.09336054 218.60474487 746.38028991 216.09619141 747.68359375 C211.75710968 749.98927403 207.5099019 752.4088481 203.28222656 754.90991211 C155.14698092 783.27514789 102.15462638 799.38044481 46.72119141 805.12109375 C45.32610352 805.26683838 45.32610352 805.26683838 43.90283203 805.41552734 C33.07261555 806.39800789 22.21209483 806.36474062 11.34619141 806.37109375 C9.78667252 806.37210587 9.78667252 806.37210587 8.19564819 806.37313843 C-34.21321623 806.32960126 -75.62711141 799.81737784 -115.68017578 785.61010742 C-116.60733398 785.28502197 -117.53449219 784.95993652 -118.48974609 784.625 C-119.70090088 784.18909546 -119.70090088 784.18909546 -120.93652344 783.74438477 C-123.47407732 783.069132 -125.66454916 783.00943523 -128.27880859 783.12109375 C-128.27880859 782.13109375 -128.27880859 781.14109375 -128.27880859 780.12109375 C-129.14844238 779.89087524 -129.14844238 779.89087524 -130.03564453 779.65600586 C-137.19672398 777.64698012 -143.80023065 774.83122373 -150.52880859 771.68359375 C-152.23182129 770.88961182 -152.23182129 770.88961182 -153.96923828 770.07958984 C-178.24810359 758.62492831 -201.31060135 745.0083981 -222.50439453 728.49853516 C-224.22334189 727.16415142 -225.95504127 725.84872406 -227.69287109 724.5390625 C-238.23368342 716.57195221 -248.25455656 708.04836246 -258.02490234 699.15625 C-260.03979898 697.33690659 -262.0877574 695.56919179 -264.15380859 693.80859375 C-272.47382467 686.5517846 -280.15393999 678.54407507 -287.27880859 670.12109375 C-288.16709778 669.09545796 -289.05652362 668.07080603 -289.94677734 667.046875 C-302.4726894 652.60645009 -313.98850972 637.77860364 -324.46630859 621.78125 C-326.1648879 619.1108777 -326.1648879 619.1108777 -328.27880859 617.12109375 C-329.39294498 615.30631489 -330.47126045 613.46942114 -331.52880859 611.62109375 C-332.14626953 610.55117188 -332.76373047 609.48125 -333.39990234 608.37890625 C-334.32996094 606.76628906 -334.32996094 606.76628906 -335.27880859 605.12109375 C-336.3773803 603.24281016 -337.4810262 601.36747881 -338.59130859 599.49609375 C-339.29707031 598.30113281 -339.29707031 598.30113281 -340.01708984 597.08203125 C-341.25908058 594.99946429 -341.25908058 594.99946429 -343.27880859 593.12109375 C-344.3245083 590.81378063 -345.25017405 588.47290181 -346.18115234 586.1171875 C-347.1725855 583.77932896 -347.1725855 583.77932896 -350.27880859 583.12109375 C-350.33681641 582.35667969 -350.39482422 581.59226562 -350.45458984 580.8046875 C-351.63712255 575.51971904 -354.06011481 571.0124998 -356.46630859 566.18359375 C-365.30910035 547.98550774 -371.55078605 529.50132516 -377.27880859 510.12109375 C-377.5877002 509.07759766 -377.8965918 508.03410156 -378.21484375 506.95898438 C-378.62742432 505.51555664 -378.62742432 505.51555664 -379.04833984 504.04296875 C-379.40762573 502.7914502 -379.40762573 502.7914502 -379.77416992 501.51464844 C-380.30735739 498.98568379 -380.3692064 496.69814862 -380.27880859 494.12109375 C-380.93880859 493.79109375 -381.59880859 493.46109375 -382.27880859 493.12109375 C-382.80615234 490.92578125 -382.80615234 490.92578125 -383.21630859 487.99609375 C-383.97784666 482.96752494 -384.84678808 477.9825846 -385.84130859 472.99609375 C-386.09009766 471.73539063 -386.33888672 470.4746875 -386.59521484 469.17578125 C-387.1268809 466.22404004 -387.1268809 466.22404004 -388.27880859 464.12109375 C-388.46890459 462.22918601 -388.60411566 460.33171496 -388.71630859 458.43359375 C-389.07306145 452.90675591 -389.51062937 447.39573539 -390.01196289 441.88012695 C-391.03031348 430.63541213 -391.92452057 419.40801034 -392.27880859 408.12109375 C-392.30749023 407.23921387 -392.33617187 406.35733398 -392.36572266 405.44873047 C-393.39153077 368.21449299 -388.30180891 331.19775658 -378.86987305 295.23535156 C-378.61272018 294.25247414 -378.61272018 294.25247414 -378.35037231 293.2497406 C-377.88290717 291.47294565 -377.4086045 289.69795362 -376.93383789 287.9230957 C-376.1649913 285.11381165 -376.1649913 285.11381165 -376.27880859 282.12109375 C-375.61880859 282.12109375 -374.95880859 282.12109375 -374.27880859 282.12109375 C-374.02615234 280.85523438 -373.77349609 279.589375 -373.51318359 278.28515625 C-372.30128044 272.84434892 -370.47515872 267.71176123 -368.52880859 262.49609375 C-368.17173828 261.5304248 -367.81466797 260.56475586 -367.44677734 259.56982422 C-366.39915796 256.75035753 -365.34104262 253.93508213 -364.27880859 251.12109375 C-364.00488281 250.38955078 -363.73095703 249.65800781 -363.44873047 248.90429688 C-359.98751672 239.71355435 -355.90092773 230.96237596 -351.38378906 222.25732422 C-350.24352684 220.05288444 -349.12220381 217.83942071 -348.00146484 215.625 C-335.14749477 190.46133896 -319.5554812 166.67136588 -301.27880859 145.12109375 C-300.73772461 144.48236328 -300.19664062 143.84363281 -299.63916016 143.18554688 C-296.67214803 139.69181473 -293.69203087 136.20987254 -290.68164062 132.75341797 C-289.66361189 131.56884781 -288.66135107 130.37066843 -287.66894531 129.16455078 C-286.87061279 128.20137939 -286.87061279 128.20137939 -286.05615234 127.21875 C-285.57267334 126.62715088 -285.08919434 126.03555176 -284.59106445 125.42602539 C-283.27880859 124.12109375 -283.27880859 124.12109375 -281.27880859 124.12109375 C-280.90755859 123.25484375 -280.90755859 123.25484375 -280.52880859 122.37109375 C-279.09580871 119.79169396 -277.49456183 118.05987783 -275.27880859 116.12109375 C-274.61880859 116.12109375 -273.95880859 116.12109375 -273.27880859 116.12109375 C-272.90755859 115.25484375 -272.90755859 115.25484375 -272.52880859 114.37109375 C-271.09580871 111.79169396 -269.49456183 110.05987783 -267.27880859 108.12109375 C-266.61880859 108.12109375 -265.95880859 108.12109375 -265.27880859 108.12109375 C-265.27880859 107.46109375 -265.27880859 106.80109375 -265.27880859 106.12109375 C-263.81005859 104.640625 -263.81005859 104.640625 -261.77880859 102.93359375 C-261.05435547 102.31742187 -260.32990234 101.70125 -259.58349609 101.06640625 C-258.82294922 100.42445313 -258.06240234 99.7825 -257.27880859 99.12109375 C-255.81770502 97.8534464 -254.35923349 96.58275694 -252.90380859 95.30859375 C-252.25669922 94.74527344 -251.60958984 94.18195313 -250.94287109 93.6015625 C-249.68432075 92.48186631 -248.46995689 91.31224205 -247.27880859 90.12109375 C-246.10610251 89.20552295 -244.91930265 88.30790575 -243.72412109 87.421875 C-243.00901367 86.89029785 -242.29390625 86.3587207 -241.55712891 85.81103516 C-240.8052832 85.25335449 -240.0534375 84.69567383 -239.27880859 84.12109375 C-237.79695706 83.01052434 -236.31518728 81.89984583 -234.83349609 80.7890625 C-221.47311793 70.8282969 -207.75507154 61.81597657 -193.38916016 53.36889648 C-191.81688395 52.43924544 -190.25231439 51.49653654 -188.69189453 50.54711914 C-180.62806277 45.71085298 -172.33631204 41.67210533 -163.77880859 37.80859375 C-163.06459747 37.4847168 -162.35038635 37.16083984 -161.61453247 36.82714844 C-110.50297479 13.73605747 -55.88902658 2.06410701 0 0 Z " fill="#FEFEFE" transform="translate(504.27880859375,101.87890625)"/>
<path d="M0 0 C30.25062135 26.91035057 37.25979086 101.79620068 39.68608093 140.49429321 C40.18136589 149.32384469 40.20035003 158.15887122 40.1875 167 C40.18623108 167.90406586 40.18496216 168.80813171 40.18365479 169.73959351 C40.02031439 230.98076768 25.35872868 291.58717912 -2.95507812 345.97949219 C-4.08675922 348.16776152 -5.19182401 350.36848462 -6.296875 352.5703125 C-12.07719094 363.96429415 -18.68401662 374.53452394 -26 385 C-26.67361572 385.97308105 -26.67361572 385.97308105 -27.36083984 386.96582031 C-32.89038614 394.94307387 -38.73524218 402.58120784 -45 410 C-45.85477157 411.04117035 -46.70891242 412.08285875 -47.5625 413.125 C-58.60724429 426.46297425 -70.80919121 439.42030275 -84.5078125 450.05859375 C-87.19871734 452.15480019 -89.74065045 454.38464947 -92.3125 456.625 C-135.77770985 492.90260354 -190.62779865 515.50321921 -246 525.25 C-247.28632324 525.47647217 -247.28632324 525.47647217 -248.59863281 525.70751953 C-251.39456912 526.1752667 -254.19462138 526.59267693 -257 527 C-258.14476807 527.17877686 -259.28953613 527.35755371 -260.46899414 527.54174805 C-273.16677501 529.30762292 -285.83079652 529.33792684 -298.63452148 529.31567383 C-302.39922574 529.31253194 -306.16312764 529.33598635 -309.92773438 529.36132812 C-387.10921829 529.5640708 -466.32211496 500.38450615 -525 450 C-526.06404341 449.10680773 -527.12921116 448.21495369 -528.1953125 447.32421875 C-531.48312192 444.57210129 -534.74655197 441.79261101 -538 439 C-538.9590625 438.17886719 -539.918125 437.35773438 -540.90625 436.51171875 C-550.9054878 427.76238567 -550.9054878 427.76238567 -553 420.5625 C-553 416.09195467 -551.75576318 413.39111969 -549 410 C-547.22930702 408.25100669 -545.38136905 406.6624008 -543.46484375 405.07421875 C-540.42727592 402.51804044 -537.53045189 399.82925971 -534.625 397.125 C-527.89423336 390.88705974 -521.122899 384.69817913 -514.1875 378.6875 C-509.96623359 375.01422761 -505.87571019 371.20368875 -501.77368164 367.39868164 C-498.34108114 364.22031106 -494.85966799 361.11666493 -491.3125 358.06640625 C-489.25786575 356.23042396 -487.25078169 354.35900225 -485.25 352.46484375 C-484.57308105 351.82530762 -483.89616211 351.18577148 -483.19873047 350.52685547 C-481.82905885 349.22942459 -480.46340727 347.92773507 -479.10205078 346.62158203 C-478.47282715 346.02587402 -477.84360352 345.43016602 -477.1953125 344.81640625 C-476.62828613 344.27443604 -476.06125977 343.73246582 -475.47705078 343.17407227 C-474 342 -474 342 -472 342 C-471.34 340.68 -470.68 339.36 -470 338 C-469.34 338 -468.68 338 -468 338 C-468 337.34 -468 336.68 -468 336 C-466.6015625 334.58984375 -466.6015625 334.58984375 -464.625 332.9375 C-456.83997458 326.31136628 -449.32637908 319.39177738 -441.82421875 312.44921875 C-436.92451836 307.91930707 -431.97160986 303.45085203 -427 299 C-422.13935122 294.64190619 -417.28809209 290.27488365 -412.48242188 285.85620117 C-411.45815908 284.91562103 -410.43213352 283.97695663 -409.40429688 283.0402832 C-407.05418511 280.8980484 -404.73087797 278.73870848 -402.44921875 276.5234375 C-401.68222656 275.79382813 -400.91523438 275.06421875 -400.125 274.3125 C-399.46757812 273.66925781 -398.81015625 273.02601563 -398.1328125 272.36328125 C-395.11911273 270.43694202 -393.53947146 270.46758853 -390 271 C-387.17131064 272.2711725 -384.57899073 273.88169194 -381.9375 275.5 C-350.23249623 293.89636681 -306.92000427 302.43353647 -271 293 C-260.04813644 289.98855925 -248.16261069 285.77987995 -242.25 275.5 C-238.97455158 269.44663963 -238.26849312 263.83407797 -239 257 C-241.65406458 248.28146663 -246.21743018 242.98412915 -254.078125 238.53125 C-277.40659896 226.30563263 -305.00431023 220.34301577 -331 217 C-331 216.34 -331 215.68 -331 215 C-329.46804728 213.62787699 -327.87078919 212.3284554 -326.25 211.0625 C-321.96022827 207.63399518 -317.83805131 204.10929197 -313.8125 200.375 C-310.59785345 197.3949509 -307.3807556 194.42763246 -304.0625 191.5625 C-300.47041211 188.45035705 -296.98451718 185.23124165 -293.5 182 C-289.37127084 178.17205475 -285.2151378 174.39141397 -280.95703125 170.70703125 C-278.6144085 168.66366569 -276.30726578 166.58319141 -274 164.5 C-271.01937279 161.81016569 -268.02754767 159.13689636 -265 156.5 C-258.32715852 150.6829939 -251.78667555 144.71904022 -245.25 138.75 C-244.32960938 137.92371094 -243.40921875 137.09742188 -242.4609375 136.24609375 C-241.03396015 134.94369378 -239.62892262 133.61452007 -238.2890625 132.22265625 C-236.3911959 130.33003238 -234.84332231 129.02824783 -232.09765625 128.9362793 C-226.18757373 129.65566886 -220.75409874 131.07858252 -215.125 133 C-214.21661377 133.30832764 -213.30822754 133.61665527 -212.37231445 133.93432617 C-183.41540231 144.0573109 -153.11802941 162.03178494 -137 189 C-136.65807617 189.54108398 -136.31615234 190.08216797 -135.96386719 190.63964844 C-117.54802511 219.86582898 -113.1033894 257.02652503 -120.40917969 290.58007812 C-128.86236221 325.20319596 -148.53271361 353.98763108 -178.99267578 372.81103516 C-184.80511838 376.25382225 -190.87235488 379.1682377 -197 382 C-198.13953125 382.53367187 -199.2790625 383.06734375 -200.453125 383.6171875 C-230.85929582 397.26460836 -264.10047608 402.2202566 -297.1875 402.25 C-298.06962158 402.25133942 -298.95174316 402.25267883 -299.8605957 402.25405884 C-314.45358769 402.24926851 -328.58016566 401.38133592 -343 399 C-344.39573854 398.79233064 -345.79156446 398.58524721 -347.1875 398.37890625 C-375.68455636 393.67805986 -405.64387008 383.79857076 -430 368 C-434.54725396 371.80700331 -438.91652018 375.76685982 -443.25 379.8125 C-447.36004415 383.64921317 -451.53656152 387.30615884 -455.9375 390.8125 C-462.23508774 395.71252819 -462.23508774 395.71252819 -467 402 C-467.57869359 405.61658971 -467.57869359 405.61658971 -466 409 C-435.33589416 442.58449687 -367.9407421 457.57846502 -325 460 C-290.24404433 461.32861768 -257.47127685 458.0046571 -224 448 C-223.12545166 447.74234863 -222.25090332 447.48469727 -221.34985352 447.21923828 C-185.27499645 436.3934739 -151.17204359 417.31573436 -123.69140625 391.50390625 C-121.54799139 389.50981492 -119.37565083 387.61837468 -117.125 385.75 C-78.91154608 352.36267587 -54.19144554 302.11084436 -41 254 C-40.71785645 252.97583984 -40.43571289 251.95167969 -40.14501953 250.89648438 C-35.61930328 234.13773308 -32.97285824 217.23373315 -31 200 C-30.8954248 199.15083008 -30.79084961 198.30166016 -30.68310547 197.42675781 C-29.63363188 187.82567027 -29.7561241 178.14638419 -29.75 168.5 C-29.74932526 167.54458313 -29.74865051 166.58916626 -29.74795532 165.60479736 C-29.76554317 149.8838912 -30.44877882 134.54336528 -33 119 C-33.16628906 117.97422852 -33.33257813 116.94845703 -33.50390625 115.89160156 C-37.27237599 93.49712122 -43.38118585 71.65470786 -52.76245117 50.95092773 C-55.1978558 45.4800633 -57.41156121 40.10277709 -57 34 C-54.3407165 28.03520331 -48.90627698 24.07834274 -44 20 C-42.29522019 18.54925757 -40.59540085 17.09285755 -38.89648438 15.63525391 C-37.67296925 14.58601477 -36.44770299 13.53881422 -35.22070312 12.49365234 C-31.76451306 9.54435775 -28.39334852 6.52880119 -25.0625 3.4375 C-17.28026987 -3.48163622 -9.52451998 -5.11501999 0 0 Z " fill="#FE2012" transform="translate(812,339)"/>
<path d="M0 0 C3.51821814 0.02369088 7.0356765 0.02051416 10.55395508 0.01391602 C29.64236609 0.03657071 48.65521915 0.94810135 67.4543457 4.46118164 C69.17874878 4.77877441 69.17874878 4.77877441 70.93798828 5.1027832 C118.66800878 14.23335281 164.56344257 32.13523759 204.9543457 59.33618164 C206.0676123 60.08448242 206.0676123 60.08448242 207.20336914 60.84790039 C215.85057213 66.70556163 224.07999441 72.87712467 231.9543457 79.73852539 C234.86253849 82.25668712 237.83003869 84.67777071 240.8293457 87.08618164 C254.49940903 98.24175157 254.49940903 98.24175157 255.3293457 105.71118164 C254.51964263 113.53831135 248.20421881 118.21858088 242.7043457 123.27368164 C241.97860352 123.95108398 241.25286133 124.62848633 240.50512695 125.32641602 C234.12592161 131.25646162 227.57520328 136.97611061 220.93334961 142.60888672 C214.97185828 147.66995356 209.15295018 152.85493391 203.43041992 158.18432617 C200.0233311 161.35694867 196.56527348 164.45167961 193.04418945 167.49633789 C190.31063932 169.9028839 187.63323868 172.36924867 184.9543457 174.83618164 C180.99577309 178.48037715 177.00257667 182.07532006 172.9387207 185.60180664 C168.90061308 189.13117629 164.93460382 192.74188795 160.9543457 196.33618164 C151.45599044 204.91348427 151.45599044 204.91348427 147.2043457 208.58618164 C143.37435437 211.91796272 139.66612302 215.37419796 135.9543457 218.83618164 C131.65217671 222.84882507 127.33007467 226.81952672 122.8762207 230.66430664 C120.54329496 232.69376237 118.24923325 234.76382864 115.9543457 236.83618164 C112.3427661 240.09541201 108.70878068 243.32324783 105.0246582 246.50024414 C103.46939618 247.87943877 101.94879466 249.29787688 100.4465332 250.73461914 C99.58286133 251.55188477 98.71918945 252.36915039 97.8293457 253.21118164 C97.04301758 253.97172852 96.25668945 254.73227539 95.4465332 255.51586914 C92.44354532 257.70927408 90.67210719 258.30285983 86.9543457 258.33618164 C84.19262695 256.96508789 84.19262695 256.96508789 81.2668457 254.89868164 C70.37865396 247.67566317 58.11364054 243.00051514 45.5793457 239.46118164 C44.90363525 239.27015869 44.2279248 239.07913574 43.53173828 238.88232422 C31.6071563 235.73300056 19.8284056 234.98782713 7.56225586 235.02050781 C5.08963886 235.02366848 2.61822228 235.00011283 0.14575195 234.97485352 C-17.48015901 234.90416694 -38.25142173 237.24144384 -52.0456543 249.33618164 C-57.98558789 255.73796752 -60.57834651 261.91763349 -60.35424805 270.68383789 C-59.54321565 277.65461003 -56.69042353 283.897961 -51.45581055 288.62133789 C-48.35367982 290.82852653 -45.11053272 292.65683153 -41.7331543 294.39868164 C-41.14888672 294.70306152 -40.56461914 295.00744141 -39.96264648 295.32104492 C-23.03555327 303.54166041 -4.22023053 307.09375132 14.00402832 311.23803711 C17.50588576 312.03641364 21.00538734 312.84498814 24.50512695 313.65258789 C31.31932 315.22351081 38.13596636 316.7835196 44.9543457 318.33618164 C43.24792722 321.97874724 41.21116372 324.31593483 38.3293457 327.14868164 C37.51208008 327.95950195 36.69481445 328.77032227 35.8527832 329.60571289 C33.64678009 331.68387486 31.42094238 333.69040921 29.1340332 335.67602539 C24.88308924 339.36895164 20.78801144 343.21014393 16.7043457 347.08618164 C10.83613046 352.6334092 4.93050117 358.13079554 -1.03393555 363.57446289 C-4.49747418 366.74215038 -7.92846071 369.9444346 -11.3581543 373.14868164 C-11.9850415 373.73431885 -12.61192871 374.31995605 -13.2578125 374.92333984 C-15.84448821 377.34098199 -18.43012223 379.75973097 -21.0144043 382.17993164 C-27.98410612 388.70711271 -34.95720344 395.22009355 -42.0925293 401.56665039 C-44.02394083 403.23387934 -44.02394083 403.23387934 -45.39086914 404.95019531 C-47.0456543 406.33618164 -47.0456543 406.33618164 -49.09985352 406.55541992 C-56.18767955 405.73809815 -62.50903063 403.7192319 -69.1706543 401.21118164 C-70.27014404 400.80448242 -71.36963379 400.3977832 -72.50244141 399.97875977 C-112.58267836 384.99681247 -148.49980916 361.53663569 -167.2253418 321.65649414 C-174.15751449 305.90289278 -177.41410702 289.3667498 -177.36132812 272.23120117 C-177.35817904 270.10290682 -177.38167688 267.97602311 -177.40698242 265.84790039 C-177.45102241 256.31072646 -176.29090809 247.61422883 -174.0456543 238.33618164 C-173.77144653 237.16490723 -173.77144653 237.16490723 -173.49169922 235.9699707 C-164.99978462 201.89891002 -139.43084329 173.79565393 -110.09643555 155.90258789 C-58.51439665 125.37773591 7.62775915 119.89113773 65.29418945 133.82836914 C85.97249373 139.16493867 106.07241706 146.57675184 124.1340332 158.06274414 C126.76933808 159.59615558 126.76933808 159.59615558 128.98950195 158.86352539 C131.63697412 156.80555001 134.09241095 154.58480298 136.5168457 152.27368164 C140.34900361 148.68505836 144.22355002 145.23973553 148.3293457 141.96118164 C152.83862719 138.29037563 157.28526016 134.56157134 161.6418457 130.71118164 C162.26687988 130.18476074 162.89191406 129.65833984 163.53588867 129.1159668 C166.68742392 126.27879035 167.83748036 124.97282599 168.6262207 120.67602539 C168.23604925 117.31421334 168.23604925 117.31421334 166.14575195 115.25415039 C164.84444336 114.39756836 164.84444336 114.39756836 163.5168457 113.52368164 C162.50493164 112.8546582 161.49301758 112.18563477 160.45043945 111.49633789 C159.28675241 110.77357784 158.12130328 110.05364916 156.9543457 109.33618164 C156.34349121 108.95059082 155.73263672 108.565 155.10327148 108.16772461 C112.16983338 81.18876566 60.16223803 67.06651183 9.5793457 67.14868164 C8.45701538 67.15008652 8.45701538 67.15008652 7.31201172 67.15151978 C-67.77667869 67.35437036 -138.02009755 97.06166352 -190.93457031 150.03979492 C-196.00829243 155.19601095 -200.61572267 160.61621498 -205.0456543 166.33618164 C-205.83198242 167.3171582 -206.61831055 168.29813477 -207.4284668 169.30883789 C-214.26568281 177.90658311 -220.26026546 187.00477379 -226.0456543 196.33618164 C-226.77703613 197.51422363 -226.77703613 197.51422363 -227.52319336 198.71606445 C-241.81811497 222.10692079 -251.77173222 248.69018054 -258.0456543 275.33618164 C-258.31152344 276.4615332 -258.31152344 276.4615332 -258.58276367 277.60961914 C-266.19615866 310.70177643 -267.5698807 345.66998985 -263.0456543 379.33618164 C-262.94913574 380.07787598 -262.85261719 380.81957031 -262.75317383 381.58374023 C-259.83785333 403.16860085 -254.16031053 424.14652898 -246.0456543 444.33618164 C-245.75045898 445.0715918 -245.45526367 445.80700195 -245.15112305 446.56469727 C-241.32929095 455.94476462 -236.78584016 464.88749172 -231.96362305 473.78930664 C-231.62564697 474.41546875 -231.2876709 475.04163086 -230.93945312 475.68676758 C-230.23890556 476.97955626 -229.53048544 478.26807945 -228.8190918 479.55493164 C-227.26323216 483.13812352 -227.25807105 486.54318072 -228.0456543 490.33618164 C-229.88798117 493.51781099 -232.37145657 495.83815572 -235.0456543 498.33618164 C-236.4069043 499.63749023 -236.4069043 499.63749023 -237.7956543 500.96508789 C-244.27987683 507.07853849 -251.07953584 512.77869378 -258.0456543 518.33618164 C-259.38370117 519.41319336 -259.38370117 519.41319336 -260.7487793 520.51196289 C-264.75013606 523.6899112 -267.62651994 524.90841379 -272.90893555 524.68383789 C-278.54709768 523.76647696 -281.82811862 520.9428939 -285.2331543 516.44946289 C-287.6682922 512.8419102 -289.86203527 509.09936014 -292.0456543 505.33618164 C-292.41303711 504.71807617 -292.78041992 504.0999707 -293.15893555 503.46313477 C-313.72289313 468.83866201 -326.00955256 430.84617157 -333.0456543 391.33618164 C-333.22644531 390.34150879 -333.40723633 389.34683594 -333.59350586 388.32202148 C-339.43711169 354.42794591 -338.08112984 317.10544813 -332.0456543 283.33618164 C-331.72419434 281.50120117 -331.72419434 281.50120117 -331.39624023 279.62915039 C-317.9685676 204.96581785 -280.8980383 131.0125046 -220.47143555 83.26586914 C-218.35637156 81.58335447 -216.35520415 79.84234578 -214.3581543 78.02368164 C-157.06686783 27.69085102 -75.79298896 -0.5432244 0 0 Z " fill="#FE3413" transform="translate(504.045654296875,144.663818359375)"/>
<path d="M0 0 C1.16796433 0.94531796 2.33593339 1.89063008 3.50390625 2.8359375 C4.71161201 3.82730386 5.91864873 4.81948586 7.125 5.8125 C7.70644775 6.28099365 8.28789551 6.7494873 8.88696289 7.23217773 C10.31570063 8.42203931 11.66554362 9.70528448 13 11 C13 14 13 14 11.84179688 15.42285156 C11.30619141 15.9072168 10.77058594 16.39158203 10.21875 16.890625 C9.62835937 17.43138672 9.03796875 17.97214844 8.4296875 18.52929688 C7.79289062 19.09712891 7.15609375 19.66496094 6.5 20.25 C5.52933594 21.13268555 5.52933594 21.13268555 4.5390625 22.03320312 C0.79768893 25.42523157 -2.98750662 28.76509191 -6.8125 32.0625 C-9.92611491 34.82027321 -12.95896617 37.66265656 -16 40.5 C-20.30209068 44.51272252 -24.62427526 48.48334873 -29.078125 52.328125 C-31.41105074 54.35758073 -33.70511245 56.427647 -36 58.5 C-39.6115796 61.75923037 -43.24556502 64.98706619 -46.9296875 68.1640625 C-48.48494953 69.54325713 -50.00555105 70.96169524 -51.5078125 72.3984375 C-52.37148438 73.21570313 -53.23515625 74.03296875 -54.125 74.875 C-55.30449219 76.01582031 -55.30449219 76.01582031 -56.5078125 77.1796875 C-59.51080038 79.37309244 -61.28223851 79.96667819 -65 80 C-67.76171875 78.62890625 -67.76171875 78.62890625 -70.6875 76.5625 C-81.57569174 69.33948153 -93.84070516 64.6643335 -106.375 61.125 C-107.05071045 60.93397705 -107.7264209 60.7429541 -108.42260742 60.54614258 C-120.3471894 57.39681891 -132.1259401 56.65164549 -144.39208984 56.68432617 C-146.86470684 56.68748684 -149.33612343 56.66393119 -151.80859375 56.63867188 C-169.43450471 56.5679853 -190.20576743 58.9052622 -204 71 C-209.93993359 77.40178588 -212.53269221 83.58145185 -212.30859375 92.34765625 C-211.49756135 99.31842839 -208.64476923 105.56177935 -203.41015625 110.28515625 C-200.30802552 112.49234489 -197.06487843 114.32064989 -193.6875 116.0625 C-193.10323242 116.36687988 -192.51896484 116.67125977 -191.91699219 116.98486328 C-174.98989897 125.20547877 -156.17457623 128.75756967 -137.95031738 132.90185547 C-134.44845994 133.700232 -130.94895837 134.5088065 -127.44921875 135.31640625 C-120.6350257 136.88732916 -113.81837935 138.44733796 -107 140 C-108.70641849 143.6425656 -110.74318198 145.97975319 -113.625 148.8125 C-114.85089844 150.02873047 -114.85089844 150.02873047 -116.1015625 151.26953125 C-118.30756562 153.34769322 -120.53340333 155.35422757 -122.8203125 157.33984375 C-127.07125647 161.03277 -131.16633426 164.87396229 -135.25 168.75 C-141.11821524 174.29722756 -147.02384453 179.7946139 -152.98828125 185.23828125 C-156.45181989 188.40596874 -159.88280641 191.60825296 -163.3125 194.8125 C-163.93938721 195.39813721 -164.56627441 195.98377441 -165.2121582 196.5871582 C-167.79883391 199.00480035 -170.38446793 201.42354933 -172.96875 203.84375 C-179.93845182 210.37093107 -186.91154914 216.88391191 -194.046875 223.23046875 C-195.97828653 224.8976977 -195.97828653 224.8976977 -197.34521484 226.61401367 C-199 228 -199 228 -201.05419922 228.21923828 C-208.14202525 227.40191651 -214.46337633 225.38305026 -221.125 222.875 C-222.22448975 222.46830078 -223.32397949 222.06160156 -224.45678711 221.64257812 C-264.53702406 206.66063083 -300.45415487 183.20045405 -319.1796875 143.3203125 C-326.11186019 127.56671114 -329.36845273 111.03056816 -329.31567383 93.89501953 C-329.31252475 91.76672518 -329.33602258 89.63984147 -329.36132812 87.51171875 C-329.40536812 77.97454482 -328.24525379 69.27804719 -326 60 C-325.72579224 58.82872559 -325.72579224 58.82872559 -325.44604492 57.63378906 C-316.95413033 23.56272838 -291.38518899 -4.54052772 -262.05078125 -22.43359375 C-181.55997655 -70.06586949 -71.15725495 -58.851865 0 0 Z " fill="#1D1D1D" transform="translate(656,323)"/>
<path d="M0 0 C3.35056606 0.84088753 6.60657745 1.88436773 9.875 3 C11.23757935 3.46249146 11.23757935 3.46249146 12.62768555 3.93432617 C41.58459769 14.0573109 71.88197059 32.03178494 88 59 C88.34192383 59.54108398 88.68384766 60.08216797 89.03613281 60.63964844 C107.45197489 89.86582898 111.8966106 127.02652503 104.59082031 160.58007812 C96.13763779 195.20319596 76.46728639 223.98763108 46.00732422 242.81103516 C40.19488162 246.25382225 34.12764512 249.1682377 28 252 C26.86046875 252.53367187 25.7209375 253.06734375 24.546875 253.6171875 C-5.85929582 267.26460836 -39.10047608 272.2202566 -72.1875 272.25 C-73.06962158 272.25133942 -73.95174316 272.25267883 -74.8605957 272.25405884 C-89.45358769 272.24926851 -103.58016566 271.38133592 -118 269 C-119.39573854 268.79233064 -120.79156446 268.58524721 -122.1875 268.37890625 C-163.19243562 261.6147724 -203.07903296 244.40223045 -233.73046875 216.078125 C-235.81350405 214.17076738 -237.9475942 212.36027793 -240.125 210.5625 C-241.07375 209.716875 -242.0225 208.87125 -243 208 C-243 206 -243 206 -241.6015625 204.58984375 C-240.94929688 204.04457031 -240.29703125 203.49929688 -239.625 202.9375 C-231.83997458 196.31136628 -224.32637908 189.39177738 -216.82421875 182.44921875 C-211.92451836 177.91930707 -206.97160986 173.45085203 -202 169 C-197.13935122 164.64190619 -192.28809209 160.27488365 -187.48242188 155.85620117 C-186.45815908 154.91562103 -185.43213352 153.97695663 -184.40429688 153.0402832 C-182.05418511 150.8980484 -179.73087797 148.73870848 -177.44921875 146.5234375 C-176.68222656 145.79382813 -175.91523438 145.06421875 -175.125 144.3125 C-174.13886719 143.34763672 -174.13886719 143.34763672 -173.1328125 142.36328125 C-170.11911273 140.43694202 -168.53947146 140.46758853 -165 141 C-162.17131064 142.2711725 -159.57899073 143.88169194 -156.9375 145.5 C-125.23249623 163.89636681 -81.92000427 172.43353647 -46 163 C-35.04813644 159.98855925 -23.16261069 155.77987995 -17.25 145.5 C-13.97455158 139.44663963 -13.26849312 133.83407797 -14 127 C-16.65406458 118.28146663 -21.21743018 112.98412915 -29.078125 108.53125 C-52.40659896 96.30563263 -80.00431023 90.34301577 -106 87 C-106 86.34 -106 85.68 -106 85 C-104.46804728 83.62787699 -102.87078919 82.3284554 -101.25 81.0625 C-96.96022827 77.63399518 -92.83805131 74.10929197 -88.8125 70.375 C-85.59785345 67.3949509 -82.3807556 64.42763246 -79.0625 61.5625 C-75.47041211 58.45035705 -71.98451718 55.23124165 -68.5 52 C-64.37127084 48.17205475 -60.2151378 44.39141397 -55.95703125 40.70703125 C-53.6144085 38.66366569 -51.30726578 36.58319141 -49 34.5 C-46.01937279 31.81016569 -43.02754767 29.13689636 -40 26.5 C-33.32715852 20.6829939 -26.78667555 14.71904022 -20.25 8.75 C-19.32960938 7.92371094 -18.40921875 7.09742188 -17.4609375 6.24609375 C-16.03396015 4.94369378 -14.62892262 3.61452007 -13.2890625 2.22265625 C-9.01797549 -2.03663218 -5.46867782 -1.0218603 0 0 Z " fill="#1D1D1E" transform="translate(587,469)"/>
<path d="M0 0 C7.24103743 5.28436004 12.88298204 11.96424409 16.1875 20.3125 C16.6 21.34375 17.0125 22.375 17.4375 23.4375 C19.90646962 36.19384303 18.10492851 47.75084645 10.9375 58.625 C3.58590308 68.32351264 -5.58028501 74.43508726 -17.8125 76.3125 C-30.82425035 77.14883074 -41.55635303 74.01319154 -51.625 65.5 C-60.06233694 57.50829705 -64.8388706 46.92337559 -65.25 35.1875 C-64.67597765 22.99447349 -59.79634617 12.56702549 -51.58984375 3.71875 C-36.80837055 -9.08770217 -16.61744444 -10.23269735 0 0 Z " fill="#FE1E11" transform="translate(840.8125,767.6875)"/>
<path d="M0 0 C6.01239547 3.20905925 11.69971883 6.67161662 17.25 10.625 C18.34852295 11.40387573 18.34852295 11.40387573 19.46923828 12.19848633 C25.22132975 16.32994388 30.65396316 20.74598251 35.9921875 25.39453125 C39.77290683 28.66951799 43.6605309 31.80097447 47.5625 34.9296875 C50.18718374 37.15898619 52.59608729 39.53598947 55 42 C54.505 42.99 54.505 42.99 54 44 C50.38844094 41.21394015 47.2221439 38.2221439 44 35 C34.72012982 26.08051313 24.45535796 18.6702671 13.8125 11.48046875 C12.94101318 10.89104492 12.06952637 10.30162109 11.17163086 9.69433594 C9.45065116 8.53552899 7.72497532 7.38366202 5.99438477 6.23925781 C5.21377686 5.71557617 4.43316895 5.19189453 3.62890625 4.65234375 C2.92838135 4.18820068 2.22785645 3.72405762 1.50610352 3.24584961 C1.00908936 2.83471924 0.5120752 2.42358887 0 2 C0 1.34 0 0.68 0 0 Z " fill="#FD110B" transform="translate(700,199)"/>
<path d="M0 0 C0.66 0.33 1.32 0.66 2 1 C2.67607553 4.62912242 2.78371142 8.31817842 3 12 C3.07734375 12.76957031 3.1546875 13.53914062 3.234375 14.33203125 C3.49008863 18.04698199 3.28045055 19.66180963 0.875 22.5625 C-0.07375 23.366875 -1.0225 24.17125 -2 25 C-3.12417007 26.25317319 -4.22817121 27.52469859 -5.3125 28.8125 C-5.82425781 29.41707031 -6.33601562 30.02164063 -6.86328125 30.64453125 C-7.23839844 31.09183594 -7.61351562 31.53914062 -8 32 C-8 27.79361622 -5.91503542 25.78095482 -3.5078125 22.44921875 C-0.29966626 17.23805892 0.23919205 12.67717849 0.125 6.625 C0.10695313 5.37976563 0.08890625 4.13453125 0.0703125 2.8515625 C0.04710937 1.91054688 0.02390625 0.96953125 0 0 Z " fill="#0D0D0E" transform="translate(573,592)"/>
<path d="M0 0 C0.99 0 1.98 0 3 0 C3 4.95 3 9.9 3 15 C2.34 15 1.68 15 1 15 C1 23.25 1 31.5 1 40 C0.67 40 0.34 40 0 40 C0 26.8 0 13.6 0 0 Z " fill="#FE2C1F" transform="translate(849,486)"/>
<path d="M0 0 C1.85085526 3.70171053 -0.92440556 8.61827483 -2.17382812 12.43945312 C-3.64283023 17.13449906 -4.15340728 21.02960411 -4 26 C-5 29.4375 -5 29.4375 -6 32 C-6.33 32 -6.66 32 -7 32 C-7.6731543 24.37091796 -6.67488069 17.6867043 -4.625 10.375 C-4.40368408 9.58109863 -4.18236816 8.78719727 -3.9543457 7.96923828 C-2.27762811 2.27762811 -2.27762811 2.27762811 0 0 Z " fill="#131312" transform="translate(335,371)"/>
<path d="M0 0 C3 3 3 3 3.4375 6.3125 C2.78881381 11.77999786 0.03335684 15.36997885 -4 19 C-4.66 18.67 -5.32 18.34 -6 18 C-5.505 17.566875 -5.01 17.13375 -4.5 16.6875 C-2.66781808 15.00259517 -2.66781808 15.00259517 -3 12 C-2.01 12 -1.02 12 0 12 C0 8.04 0 4.08 0 0 Z " fill="#FD130B" transform="translate(756,244)"/>
<path d="M0 0 C2.29160319 -0.02692484 4.58329546 -0.04636124 6.875 -0.0625 C8.15117188 -0.07410156 9.42734375 -0.08570313 10.7421875 -0.09765625 C14 0 14 0 16 1 C16 1.66 16 2.32 16 3 C7.09 3 -1.82 3 -11 3 C-11 2.67 -11 2.34 -11 2 C-5.555 1.505 -5.555 1.505 0 1 C0 0.67 0 0.34 0 0 Z " fill="#FE291C" transform="translate(504,800)"/>
<path d="M0 0 C0.66 0.33 1.32 0.66 2 1 C0.77937479 2.44475986 -0.45192126 3.88050764 -1.6875 5.3125 C-2.37199219 6.11300781 -3.05648438 6.91351562 -3.76171875 7.73828125 C-6.03556392 10.03593632 -8.2047749 11.40778317 -11 13 C-12.29666785 14.03081332 -13.57040913 15.09153747 -14.8125 16.1875 C-15.41707031 16.71730469 -16.02164062 17.24710938 -16.64453125 17.79296875 C-17.09183594 18.19128906 -17.53914063 18.58960938 -18 19 C-14.54030282 11.11957865 -6.42159243 5.46518505 0 0 Z " fill="#0B0B0B" transform="translate(405,620)"/>
<path d="M0 0 C0.99 0.33 1.98 0.66 3 1 C3.02689216 2.47906892 3.04634621 3.95827483 3.0625 5.4375 C3.07410156 6.26121094 3.08570313 7.08492187 3.09765625 7.93359375 C3 10 3 10 2 11 C1.84379445 12.41327947 1.74943827 13.8335459 1.68359375 15.25390625 C1.64169922 16.10791016 1.59980469 16.96191406 1.55664062 17.84179688 C1.51732422 18.73962891 1.47800781 19.63746094 1.4375 20.5625 C1.39431641 21.46419922 1.35113281 22.36589844 1.30664062 23.29492188 C1.20021858 25.52978485 1.09820012 27.76476308 1 30 C0.67 30 0.34 30 0 30 C0 20.1 0 10.2 0 0 Z " fill="#262526" transform="translate(691,582)"/>
<path d="M0 0 C0.66 0.33 1.32 0.66 2 1 C-2.79077028 5.9255107 -7.77674023 10.53648711 -13 15 C-13.66 14.67 -14.32 14.34 -15 14 C-14.44570313 13.45730469 -13.89140625 12.91460937 -13.3203125 12.35546875 C-12.23363281 11.28232422 -12.23363281 11.28232422 -11.125 10.1875 C-10.40570312 9.47980469 -9.68640625 8.77210938 -8.9453125 8.04296875 C-6.84641063 5.95600806 -6.84641063 5.95600806 -5 3 C-2.9375 1.875 -2.9375 1.875 -1 1 C-0.67 0.67 -0.34 0.34 0 0 Z " fill="#FD0905" transform="translate(726,283)"/>
<path d="M0 0 C0.66 0.33 1.32 0.66 2 1 C-2.47352044 5.59589638 -7.08064098 9.88380164 -12 14 C-12.66 13.67 -13.32 13.34 -14 13 C-12.88121617 11.82737096 -11.75476949 10.66204862 -10.625 9.5 C-9.99851562 8.8503125 -9.37203125 8.200625 -8.7265625 7.53125 C-7 6 -7 6 -5 6 C-5.33 5.01 -5.66 4.02 -6 3 C-5.195625 2.690625 -4.39125 2.38125 -3.5625 2.0625 C-1.10919595 1.23664655 -1.10919595 1.23664655 0 0 Z " fill="#FB120A" transform="translate(688,317)"/>
<path d="M0 0 C1.98136116 1.78322505 3.33421782 3.5070891 4.8125 5.75 C7.28680415 9.42610902 10.06316453 12.69116537 13 16 C7.01234448 13.20914361 3.31486808 8.64755303 0 3 C0 2.01 0 1.02 0 0 Z " fill="#0C0C0C" transform="translate(443,421)"/>
<path d="M0 0 C0.75 1.625 0.75 1.625 1 4 C-0.9375 7.25 -0.9375 7.25 -3 10 C-4.32 9.34 -5.64 8.68 -7 8 C-6.02133662 6.85373678 -5.04205413 5.70800212 -4.0625 4.5625 C-3.51722656 3.92441406 -2.97195313 3.28632813 -2.41015625 2.62890625 C-1.63204305 1.73008851 -0.84063472 0.84063472 0 0 Z " fill="#F52215" transform="translate(639,298)"/>
<path d="M0 0 C1.77119803 0.14133499 3.54195287 0.28823208 5.3125 0.4375 C6.29863281 0.51871094 7.28476562 0.59992187 8.30078125 0.68359375 C11 1 11 1 14 2 C14 2.66 14 3.32 14 4 C14.66 4.33 15.32 4.66 16 5 C10.34979382 4.39891424 5.33835539 2.92471317 0 1 C0 0.67 0 0.34 0 0 Z " fill="#151414" transform="translate(523,563)"/>
<path d="M0 0 C1.65 0 3.3 0 5 0 C3.46356148 3.68069887 1.21849055 5.98775204 -1.625 8.75 C-2.85089844 9.94882812 -2.85089844 9.94882812 -4.1015625 11.171875 C-4.72804688 11.77515625 -5.35453125 12.3784375 -6 13 C-6 10 -6 10 -4.50390625 8.24609375 C-3.86324219 7.64925781 -3.22257813 7.05242187 -2.5625 6.4375 C0.0896163 3.99710571 0.0896163 3.99710571 2 1 C1.34 0.67 0.68 0.34 0 0 Z " fill="#080707" transform="translate(544,463)"/>
<path d="M0 0 C1.79093191 -0.08086147 3.58289628 -0.13912702 5.375 -0.1875 C6.87160156 -0.23970703 6.87160156 -0.23970703 8.3984375 -0.29296875 C9.25695312 -0.19628906 10.11546875 -0.09960938 11 0 C11.66 0.99 12.32 1.98 13 3 C6.07 2.505 6.07 2.505 -1 2 C-0.67 1.34 -0.34 0.68 0 0 Z " fill="#222324" transform="translate(533,737)"/>
<path d="M0 0 C0.99 0.33 1.98 0.66 3 1 C3.08153933 2.58246707 3.13943557 4.16616273 3.1875 5.75 C3.23970703 7.07257813 3.23970703 7.07257813 3.29296875 8.421875 C3 11 3 11 0 15 C0 10.05 0 5.1 0 0 Z " fill="#FE4321" transform="translate(168,460)"/>
<path d="M0 0 C0.66 0.33 1.32 0.66 2 1 C1.51675181 6.15464734 -1.18610761 9.81550319 -4 14 C-4.33 13.34 -4.66 12.68 -5 12 C-4.26821134 9.92803369 -3.44100997 7.8891448 -2.5625 5.875 C-2.08941406 4.77929688 -1.61632812 3.68359375 -1.12890625 2.5546875 C-0.75636719 1.71164062 -0.38382813 0.86859375 0 0 Z " fill="#151415" transform="translate(678,658)"/>
<path d="M0 0 C0 0.66 0 1.32 0 2 C-1.98 2 -3.96 2 -6 2 C-6 2.66 -6 3.32 -6 4 C-7.65 4 -9.3 4 -11 4 C-11 3.01 -11 2.02 -11 1 C-7.26562152 0.12132271 -3.83225427 -0.08912219 0 0 Z " fill="#252425" transform="translate(477,274)"/>
<path d="M0 0 C0.33 0 0.66 0 1 0 C1 4.29 1 8.58 1 13 C-2 10 -2 10 -2.3125 6.5 C-2 3 -2 3 0 0 Z " fill="#FE4519" transform="translate(170,500)"/>
<path d="M0 0 C4.05606165 0.46800711 7.46588679 0.87953208 11 3 C10.34 3.66 9.68 4.32 9 5 C5.16702862 4.50542305 2.71420129 2.71420129 0 0 Z " fill="#101010" transform="translate(467,443)"/>
<path d="M0 0 C0.66 0.33 1.32 0.66 2 1 C-0.31 3.31 -2.62 5.62 -5 8 C-5.99 7.67 -6.98 7.34 -8 7 C-7.67 6.01 -7.34 5.02 -7 4 C-5.67203709 3.64587656 -4.33783393 3.31478446 -3 3 C-1.26973898 1.52109931 -1.26973898 1.52109931 0 0 Z " fill="#FE4218" transform="translate(290,224)"/>
<path d="M0 0 C0.66 0.33 1.32 0.66 2 1 C-0.31 3.31 -2.62 5.62 -5 8 C-5.66 7.34 -6.32 6.68 -7 6 C-4.87944386 2.8191658 -3.36949443 1.68474722 0 0 Z " fill="#FC1811" transform="translate(254,653)"/>
<path d="M0 0 C2.10814567 4.21629134 2.17700355 6.39790775 2 11 C1.01 11 0.02 11 -1 11 C-0.67 7.37 -0.34 3.74 0 0 Z " fill="#FC3128" transform="translate(780,548)"/>
<path d="M0 0 C0.66 0.33 1.32 0.66 2 1 C-3.5 6 -3.5 6 -8 6 C-7.67 5.01 -7.34 4.02 -7 3 C-4 1.875 -4 1.875 -1 1 C-0.67 0.67 -0.34 0.34 0 0 Z " fill="#121211" transform="translate(599,397)"/>
<path d="M0 0 C0.66 0.33 1.32 0.66 2 1 C0.71451591 2.33929505 -0.57858155 3.67128643 -1.875 5 C-2.59429688 5.7425 -3.31359375 6.485 -4.0546875 7.25 C-6 9 -6 9 -8 9 C-8 8.01 -8 7.02 -8 6 C-6.36935236 4.94228261 -4.69719127 3.94726954 -3 3 C-1.24850835 1.41754725 -1.24850835 1.41754725 0 0 Z " fill="#FD0F08" transform="translate(746,265)"/>
<path d="M0 0 C0.66 0.99 1.32 1.98 2 3 C0.02 4.98 -1.96 6.96 -4 9 C-4.66 8.67 -5.32 8.34 -6 8 C-5.38125 7.236875 -4.7625 6.47375 -4.125 5.6875 C-1.94402948 3.00374191 -1.94402948 3.00374191 0 0 Z " fill="#232325" transform="translate(514,525)"/>
<path d="M0 0 C1 3 1 3 0.29296875 5.0078125 C-0.25423828 6.05582031 -0.25423828 6.05582031 -0.8125 7.125 C-1.16957031 7.82882812 -1.52664062 8.53265625 -1.89453125 9.2578125 C-3 11 -3 11 -5 12 C-4.54738642 10.56068883 -4.08767021 9.12361001 -3.625 7.6875 C-3.24214844 6.48673828 -3.24214844 6.48673828 -2.8515625 5.26171875 C-2 3 -2 3 0 0 Z " fill="#FE4913" transform="translate(207,326)"/>
<path d="M0 0 C2.64 0 5.28 0 8 0 C8 0.99 8 1.98 8 3 C5.36 3 2.72 3 0 3 C0 2.01 0 1.02 0 0 Z " fill="#FE4427" transform="translate(480,145)"/>
<path d="M0 0 C3.63 1.65 7.26 3.3 11 5 C11 5.66 11 6.32 11 7 C7.2089881 5.55049545 3.6125362 3.84827434 0 2 C0 1.34 0 0.68 0 0 Z " fill="#090908" transform="translate(433,617)"/>
<path d="M0 0 C6.75 0.75 6.75 0.75 9 3 C7.3125 3.6875 7.3125 3.6875 5 4 C2.25 2.625 2.25 2.625 0 1 C0 0.67 0 0.34 0 0 Z " fill="#FE1F17" transform="translate(622,232)"/>
<path d="M0 0 C1.17539996 0.92652701 2.34010577 1.86663387 3.5 2.8125 C4.1496875 3.33457031 4.799375 3.85664063 5.46875 4.39453125 C7 6 7 6 7 9 C3.99234114 6.15063897 1.72154788 3.76488042 0 0 Z " fill="#181716" transform="translate(355,493)"/>
<path d="M0 0 C0.99 0.33 1.98 0.66 3 1 C3 3.31 3 5.62 3 8 C2.01 8.495 2.01 8.495 1 9 C-0.4783226 6.04335481 -0.06032783 3.25770263 0 0 Z " fill="#2A282A" transform="translate(327,398)"/>
<path d="M0 0 C0.99 0 1.98 0 3 0 C1.8141763 3.37503669 0.72426311 5.64722731 -2 8 C-2.66 7.67 -3.32 7.34 -4 7 C-3.525625 6.5875 -3.05125 6.175 -2.5625 5.75 C-0.83733482 3.817815 -0.43415125 2.51807725 0 0 Z " fill="#FE4719" transform="translate(254,256)"/>
<path d="M0 0 C2.31 0 4.62 0 7 0 C7 0.99 7 1.98 7 3 C4.69 3 2.38 3 0 3 C0 2.01 0 1.02 0 0 Z " fill="#FF3025" transform="translate(469,864)"/>
<path d="M0 0 C2.30903272 3.98352209 1.86516528 6.50114053 1 11 C0.34 10.34 -0.32 9.68 -1 9 C-0.9765625 6.8359375 -0.9765625 6.8359375 -0.625 4.375 C-0.51414062 3.55773437 -0.40328125 2.74046875 -0.2890625 1.8984375 C-0.19367188 1.27195312 -0.09828125 0.64546875 0 0 Z " fill="#FE2416" transform="translate(273,625)"/>
<path d="M0 0 C2.875 0.25 2.875 0.25 6 1 C7.375 3.0625 7.375 3.0625 8 5 C4.5625 4.1875 4.5625 4.1875 1 3 C0.67 2.01 0.34 1.02 0 0 Z " fill="#272727" transform="translate(537,566)"/>
<path d="M0 0 C0.66 0 1.32 0 2 0 C2 2.31 2 4.62 2 7 C1.67 7 1.34 7 1 7 C0.67 4.69 0.34 2.38 0 0 Z " fill="#FBFCFB" transform="translate(113,552)"/>
<path d="M0 0 C0.66 0.66 1.32 1.32 2 2 C1.625 4.125 1.625 4.125 1 6 C0.67 4.02 0.34 2.04 0 0 Z " fill="#FAFAFA" transform="translate(129,623)"/>
<path d="M0 0 C1.98 0 3.96 0 6 0 C6 0.33 6 0.66 6 1 C4.02 1 2.04 1 0 1 C0 0.67 0 0.34 0 0 Z " fill="#F9F9FA" transform="translate(527,909)"/>
<path d="M0 0 C0.66 1.32 1.32 2.64 2 4 C1.34 3.67 0.68 3.34 0 3 C0 2.01 0 1.02 0 0 Z " fill="#FBFBFB" transform="translate(162,697)"/>
<path d="M0 0 C0.99 0.495 0.99 0.495 2 1 C2 1.66 2 2.32 2 3 C1.34 3 0.68 3 0 3 C0 2.01 0 1.02 0 0 Z " fill="#FAFAFA" transform="translate(137,647)"/>
<path d="M0 0 C4 1 4 1 4 1 Z " fill="#F9F9FA" transform="translate(495,909)"/>
<path d="M0 0 C4 1 4 1 4 1 Z " fill="#FAF9F9" transform="translate(432,901)"/>
<path d="M0 0 C4 1 4 1 4 1 Z " fill="#FAFAFB" transform="translate(427,900)"/>
<path d="M0 0 C0.99 0.495 0.99 0.495 2 1 C1.67 1.66 1.34 2.32 1 3 C0.67 2.01 0.34 1.02 0 0 Z " fill="#FBFAFB" transform="translate(164,701)"/>
<path d="M0 0 C0.66 0.33 1.32 0.66 2 1 C1.01 1 0.02 1 -1 1 C-0.67 0.67 -0.34 0.34 0 0 Z " fill="#FCFCFC" transform="translate(860,701)"/>
<path d="M0 0 C0.66 0 1.32 0 2 0 C2 0.66 2 1.32 2 2 C1.34 2 0.68 2 0 2 C0 1.34 0 0.68 0 0 Z " fill="#FAFAFA" transform="translate(138,651)"/>
<path d="M0 0 C1 4 1 4 1 4 Z " fill="#FBFAFB" transform="translate(128,618)"/>
<path d="M0 0 C1 4 1 4 1 4 Z " fill="#FCFCFB" transform="translate(112,533)"/>
<path d="M0 0 C0.33 0.66 0.66 1.32 1 2 C0.01 1.67 -0.98 1.34 -2 1 C-1.34 0.67 -0.68 0.34 0 0 Z " fill="#FBFBFA" transform="translate(206,240)"/>
<path d="M0 0 C3 1 3 1 3 1 Z " fill="#F8F8FA" transform="translate(520,909)"/>
<path d="M0 0 C3 1 3 1 3 1 Z " fill="#F9F9FA" transform="translate(512,909)"/>
<path d="M0 0 C3 1 3 1 3 1 Z " fill="#F9FAFA" transform="translate(488,909)"/>
<path d="M0 0 C3 1 3 1 3 1 Z " fill="#F8F9F9" transform="translate(470,907)"/>
<path d="M0 0 C3 1 3 1 3 1 Z " fill="#F9FAFB" transform="translate(464,906)"/>
<path d="M0 0 C3 1 3 1 3 1 Z " fill="#F5F6F6" transform="translate(821,874)"/>
<path d="M0 0 C0.66 0.66 1.32 1.32 2 2 C1.34 2 0.68 2 0 2 C0 1.34 0 0.68 0 0 Z " fill="#FCFCFC" transform="translate(739,837)"/>
<path d="M0 0 C0.66 0.66 1.32 1.32 2 2 C1.34 2 0.68 2 0 2 C0 1.34 0 0.68 0 0 Z " fill="#F9F9F9" transform="translate(288,836)"/>
<path d="M0 0 C0.66 0 1.32 0 2 0 C1.67 0.66 1.34 1.32 1 2 C0.67 1.34 0.34 0.68 0 0 Z " fill="#FDFDFE" transform="translate(849,738)"/>
<path d="M0 0 C0.66 0.66 1.32 1.32 2 2 C1.34 2 0.68 2 0 2 C0 1.34 0 0.68 0 0 Z " fill="#FCFCFB" transform="translate(845,725)"/>
<path d="M0 0 C0.66 0.66 1.32 1.32 2 2 C1.34 2 0.68 2 0 2 C0 1.34 0 0.68 0 0 Z " fill="#FCFBFB" transform="translate(178,723)"/>
<path d="M0 0 C0.66 0 1.32 0 2 0 C1.67 0.66 1.34 1.32 1 2 C0.67 1.34 0.34 0.68 0 0 Z " fill="#FBFBFB" transform="translate(854,714)"/>
<path d="M0 0 C0.33 0.66 0.66 1.32 1 2 C0.34 1.67 -0.32 1.34 -1 1 C-0.67 0.67 -0.34 0.34 0 0 Z " fill="#FBFBFB" transform="translate(146,667)"/>
<path d="" fill="#FAFBFA" transform="translate(0,0)"/>
<path d="" fill="#FAFCFB" transform="translate(0,0)"/>
<path d="" fill="#FBFCFB" transform="translate(0,0)"/>
<path d="" fill="#FAFAFB" transform="translate(0,0)"/>
<path d="" fill="#FAFAFA" transform="translate(0,0)"/>
<path d="M0 0 C3 1 3 1 3 1 Z " fill="#F9FBFA" transform="translate(376,123)"/>
<path d="M0 0 C3 1 3 1 3 1 Z " fill="#FBFBFA" transform="translate(457,104)"/>
<path d="M0 0 C3 1 3 1 3 1 Z " fill="#FAFCFC" transform="translate(488,101)"/>
<path d="M0 0 C2 1 2 1 2 1 Z " fill="#F9F9FA" transform="translate(536,909)"/>
<path d="M0 0 C2 1 2 1 2 1 Z " fill="#F9F9F9" transform="translate(504,909)"/>
<path d="M0 0 C2 1 2 1 2 1 Z " fill="#F9F9F9" transform="translate(548,908)"/>
<path d="M0 0 C2 1 2 1 2 1 Z " fill="#F8FAFB" transform="translate(484,908)"/>
<path d="M0 0 C2 1 2 1 2 1 Z " fill="#F9F9FA" transform="translate(481,908)"/>
<path d="M0 0 C2 1 2 1 2 1 Z " fill="#F9FAF9" transform="translate(557,907)"/>
<path d="M0 0 C2 1 2 1 2 1 Z " fill="#F6F8F7" transform="translate(605,902)"/>
<path d="M0 0 C2 1 2 1 2 1 Z " fill="#F8F9FA" transform="translate(588,902)"/>
<path d="M0 0 C2 1 2 1 2 1 Z " fill="#F9F9F9" transform="translate(436,902)"/>
<path d="M0 0 C2 1 2 1 2 1 Z " fill="#F8F9F8" transform="translate(421,898)"/>
<path d="M0 0 C2 1 2 1 2 1 Z " fill="#F9F8F9" transform="translate(384,887)"/>
<path d="M0 0 C2 1 2 1 2 1 Z " fill="#F8F8F9" transform="translate(381,886)"/>
<path d="M0 0 C2 1 2 1 2 1 Z " fill="#F8F8FA" transform="translate(649,885)"/>
<path d="M0 0 C2 1 2 1 2 1 Z " fill="#F8F9F9" transform="translate(371,882)"/>
<path d="" fill="#FAF9FA" transform="translate(0,0)"/>
<path d="" fill="#F3F5F5" transform="translate(0,0)"/>
<path d="M0 0 C2 1 2 1 2 1 Z " fill="#F8F9F9" transform="translate(326,863)"/>
<path d="M0 0 C2 1 2 1 2 1 Z " fill="#F3F2F3" transform="translate(868,855)"/>
<path d="M0 0 C2 1 2 1 2 1 Z " fill="#F2F2F2" transform="translate(876,846)"/>
<path d="" fill="#FCFCFC" transform="translate(0,0)"/>
<path d="M0 0 C2 1 2 1 2 1 Z " fill="#FDFCFC" transform="translate(754,838)"/>
<path d="" fill="#FDFDFD" transform="translate(0,0)"/>
<path d="" fill="#F4F4F4" transform="translate(0,0)"/>
<path d="" fill="#F6F5F5" transform="translate(0,0)"/>
<path d="" fill="#FAFAF9" transform="translate(0,0)"/>
<path d="M0 0 C2 1 2 1 2 1 Z " fill="#FBFBFC" transform="translate(209,765)"/>
<path d="" fill="#FCFBFB" transform="translate(0,0)"/>
<path d="M0 0 C2 1 2 1 2 1 Z " fill="#FCFCFC" transform="translate(869,754)"/>
<path d="" fill="#FCFBFB" transform="translate(0,0)"/>
<path d="M0 0 C2 1 2 1 2 1 Z " fill="#FBFBFA" transform="translate(194,747)"/>
<path d="" fill="#FAFBFC" transform="translate(0,0)"/>
<path d="M0 0 C2 1 2 1 2 1 Z " fill="#FBFAFA" transform="translate(846,723)"/>
<path d="M0 0 C2 1 2 1 2 1 Z " fill="#FAFAFB" transform="translate(171,714)"/>
<path d="M0 0 C2 1 2 1 2 1 Z " fill="#FBFAFB" transform="translate(852,713)"/>
<path d="" fill="#F9FAFB" transform="translate(0,0)"/>
<path d="M0 0 C2 1 2 1 2 1 Z " fill="#FBFCFD" transform="translate(868,686)"/>
<path d="" fill="#FAF9F9" transform="translate(0,0)"/>
<path d="M0 0 C2 1 2 1 2 1 Z " fill="#FAFAFA" transform="translate(132,638)"/>
<path d="" fill="#F9F9F9" transform="translate(0,0)"/>
<path d="" fill="#FAFBFB" transform="translate(0,0)"/>
<path d="" fill="#FAF9F9" transform="translate(0,0)"/>
<path d="" fill="#FBFCFC" transform="translate(0,0)"/>
<path d="" fill="#F9FAFA" transform="translate(0,0)"/>
<path d="" fill="#FAFAFA" transform="translate(0,0)"/>
<path d="" fill="#F9F9FA" transform="translate(0,0)"/>
<path d="" fill="#FAFAFA" transform="translate(0,0)"/>
<path d="" fill="#FBFAFB" transform="translate(0,0)"/>
<path d="" fill="#FAFBFA" transform="translate(0,0)"/>
<path d="" fill="#FBF9F9" transform="translate(0,0)"/>
<path d="" fill="#FBFBFA" transform="translate(0,0)"/>
<path d="" fill="#FAFBFA" transform="translate(0,0)"/>
<path d="" fill="#F8F8F9" transform="translate(0,0)"/>
<path d="" fill="#FAFAFB" transform="translate(0,0)"/>
<path d="M0 0 C2 1 2 1 2 1 Z " fill="#FAF9F9" transform="translate(193,256)"/>
<path d="" fill="#F9F9F9" transform="translate(0,0)"/>
<path d="" fill="#FAFAF9" transform="translate(0,0)"/>
<path d="M0 0 C2 1 2 1 2 1 Z " fill="#F7F9F8" transform="translate(216,224)"/>
<path d="" fill="#FAFAF9" transform="translate(0,0)"/>
<path d="M0 0 C2 1 2 1 2 1 Z " fill="#F9F9F9" transform="translate(281,171)"/>
<path d="M0 0 C2 1 2 1 2 1 Z " fill="#F8F9F7" transform="translate(693,144)"/>
<path d="M0 0 C2 1 2 1 2 1 Z " fill="#F9F8F9" transform="translate(337,139)"/>
<path d="M0 0 C2 1 2 1 2 1 Z " fill="#F7F7F7" transform="translate(345,136)"/>
<path d="M0 0 C2 1 2 1 2 1 Z " fill="#F9F9F9" transform="translate(660,129)"/>
<path d="M0 0 C2 1 2 1 2 1 Z " fill="#F7F7F7" transform="translate(606,112)"/>
<path d="" fill="#FBFBFB" transform="translate(0,0)"/>
<path d="M0 0 C2 1 2 1 2 1 Z " fill="#FAFCFB" transform="translate(531,101)"/>
<path d="M0 0 C2 1 2 1 2 1 Z " fill="#FDFCFD" transform="translate(523,100)"/>
<path d="M0 0 C2 1 2 1 2 1 Z " fill="#FBFDFC" transform="translate(508,100)"/>
<path d="" fill="#959696" transform="translate(0,0)"/>
<path d="" fill="#F8FAFA" transform="translate(0,0)"/>
<path d="" fill="#F9F9F9" transform="translate(0,0)"/>
<path d="" fill="#FAF9F9" transform="translate(0,0)"/>
<path d="" fill="#FBF9FA" transform="translate(0,0)"/>
<path d="" fill="#FAFAFA" transform="translate(0,0)"/>
<path d="" fill="#F9FBFA" transform="translate(0,0)"/>
<path d="" fill="#F9FBFA" transform="translate(0,0)"/>
<path d="" fill="#F7FAF9" transform="translate(0,0)"/>
<path d="" fill="#FBFBF9" transform="translate(0,0)"/>
<path d="" fill="#FAFBFA" transform="translate(0,0)"/>
<path d="" fill="#F6F7F8" transform="translate(0,0)"/>
<path d="" fill="#FBFBFC" transform="translate(0,0)"/>
<path d="" fill="#F8F9F8" transform="translate(0,0)"/>
<path d="" fill="#F8FBFA" transform="translate(0,0)"/>
<path d="" fill="#F9F9F8" transform="translate(0,0)"/>
<path d="" fill="#FAFBFB" transform="translate(0,0)"/>
<path d="" fill="#F8F8FA" transform="translate(0,0)"/>
<path d="" fill="#FAFAFA" transform="translate(0,0)"/>
<path d="" fill="#F9FAFA" transform="translate(0,0)"/>
<path d="" fill="#F6FAFA" transform="translate(0,0)"/>
<path d="" fill="#F8F7FA" transform="translate(0,0)"/>
<path d="" fill="#FAF9FA" transform="translate(0,0)"/>
<path d="" fill="#F7F8F8" transform="translate(0,0)"/>
<path d="" fill="#F8F8F7" transform="translate(0,0)"/>
<path d="" fill="#F7F9F9" transform="translate(0,0)"/>
<path d="" fill="#F9F9F9" transform="translate(0,0)"/>
<path d="" fill="#F8F9FA" transform="translate(0,0)"/>
<path d="" fill="#F9F9FA" transform="translate(0,0)"/>
<path d="" fill="#F8FAFA" transform="translate(0,0)"/>
<path d="" fill="#F9F9F8" transform="translate(0,0)"/>
<path d="" fill="#F6F7F9" transform="translate(0,0)"/>
<path d="" fill="#F6F6F6" transform="translate(0,0)"/>
<path d="" fill="#F6F9F8" transform="translate(0,0)"/>
<path d="" fill="#F7F8F6" transform="translate(0,0)"/>
<path d="" fill="#F9FAFA" transform="translate(0,0)"/>
<path d="" fill="#FAFCFB" transform="translate(0,0)"/>
<path d="" fill="#F4F4F5" transform="translate(0,0)"/>
<path d="" fill="#FAFAFB" transform="translate(0,0)"/>
<path d="" fill="#F9F8F8" transform="translate(0,0)"/>
<path d="" fill="#F9F8F9" transform="translate(0,0)"/>
<path d="" fill="#F9F9F9" transform="translate(0,0)"/>
<path d="" fill="#FBFBFC" transform="translate(0,0)"/>
<path d="" fill="#FAF9FA" transform="translate(0,0)"/>
<path d="" fill="#F8F9FA" transform="translate(0,0)"/>
<path d="" fill="#F4F7F5" transform="translate(0,0)"/>
<path d="" fill="#F9FBFA" transform="translate(0,0)"/>
<path d="" fill="#FAFAF9" transform="translate(0,0)"/>
<path d="" fill="#F9FBFA" transform="translate(0,0)"/>
<path d="" fill="#FAF9F9" transform="translate(0,0)"/>
<path d="" fill="#F9F9FA" transform="translate(0,0)"/>
<path d="" fill="#F4F4F4" transform="translate(0,0)"/>
<path d="" fill="#F8FBF9" transform="translate(0,0)"/>
<path d="" fill="#F7F8F8" transform="translate(0,0)"/>
<path d="" fill="#F8F8F8" transform="translate(0,0)"/>
<path d="" fill="#F9F9F8" transform="translate(0,0)"/>
<path d="" fill="#FBFBFB" transform="translate(0,0)"/>
<path d="" fill="#FBFAFA" transform="translate(0,0)"/>
<path d="" fill="#F4F3F4" transform="translate(0,0)"/>
<path d="" fill="#FCFDFD" transform="translate(0,0)"/>
<path d="" fill="#FCFBFA" transform="translate(0,0)"/>
<path d="" fill="#FDFBFC" transform="translate(0,0)"/>
<path d="" fill="#FCFCFD" transform="translate(0,0)"/>
<path d="" fill="#FDFDFD" transform="translate(0,0)"/>
<path d="" fill="#FDFBFC" transform="translate(0,0)"/>
<path d="" fill="#F9F8F9" transform="translate(0,0)"/>
<path d="" fill="#F9FAF9" transform="translate(0,0)"/>
<path d="" fill="#FFFDFE" transform="translate(0,0)"/>
<path d="" fill="#F8F8F8" transform="translate(0,0)"/>
<path d="" fill="#FAFBFB" transform="translate(0,0)"/>
<path d="" fill="#FDFBFD" transform="translate(0,0)"/>
<path d="" fill="#F7F9FA" transform="translate(0,0)"/>
<path d="" fill="#F6F5F5" transform="translate(0,0)"/>
<path d="" fill="#F4F3F6" transform="translate(0,0)"/>
<path d="" fill="#FAFAFA" transform="translate(0,0)"/>
<path d="" fill="#F9FAFA" transform="translate(0,0)"/>
<path d="" fill="#F6F5F6" transform="translate(0,0)"/>
<path d="" fill="#F8F6F6" transform="translate(0,0)"/>
<path d="" fill="#FAFAF8" transform="translate(0,0)"/>
<path d="" fill="#FAFAF9" transform="translate(0,0)"/>
<path d="" fill="#F8F9F9" transform="translate(0,0)"/>
<path d="" fill="#F8F9F9" transform="translate(0,0)"/>
<path d="" fill="#F9F9F7" transform="translate(0,0)"/>
<path d="" fill="#FCFAFA" transform="translate(0,0)"/>
<path d="" fill="#FAFAFA" transform="translate(0,0)"/>
<path d="" fill="#FBFAFB" transform="translate(0,0)"/>
<path d="" fill="#F9FBFB" transform="translate(0,0)"/>
<path d="" fill="#FAFAFA" transform="translate(0,0)"/>
<path d="" fill="#F9FBFB" transform="translate(0,0)"/>
<path d="" fill="#FAFBFA" transform="translate(0,0)"/>
<path d="" fill="#FCFAFB" transform="translate(0,0)"/>
<path d="" fill="#FCFCFB" transform="translate(0,0)"/>
<path d="" fill="#FAFBFC" transform="translate(0,0)"/>
<path d="" fill="#FAFAFA" transform="translate(0,0)"/>
<path d="" fill="#FAF9F9" transform="translate(0,0)"/>
<path d="" fill="#FAFBFC" transform="translate(0,0)"/>
<path d="" fill="#FAFBFC" transform="translate(0,0)"/>
<path d="" fill="#FAFBFA" transform="translate(0,0)"/>
<path d="" fill="#FBFDFB" transform="translate(0,0)"/>
<path d="" fill="#FCFAFB" transform="translate(0,0)"/>
<path d="" fill="#FBFCFB" transform="translate(0,0)"/>
<path d="" fill="#FDFCFC" transform="translate(0,0)"/>
<path d="" fill="#FDFEFC" transform="translate(0,0)"/>
<path d="" fill="#FCFCFB" transform="translate(0,0)"/>
<path d="" fill="#FEFFFE" transform="translate(0,0)"/>
<path d="" fill="#F9FBFB" transform="translate(0,0)"/>
<path d="" fill="#FAFAFA" transform="translate(0,0)"/>
<path d="" fill="#FEFDFE" transform="translate(0,0)"/>
<path d="" fill="#FCFAFA" transform="translate(0,0)"/>
<path d="" fill="#FBFCFB" transform="translate(0,0)"/>
<path d="" fill="#FCFBFC" transform="translate(0,0)"/>
<path d="" fill="#F9FCFA" transform="translate(0,0)"/>
<path d="" fill="#FBF9F8" transform="translate(0,0)"/>
<path d="" fill="#FBFBFC" transform="translate(0,0)"/>
<path d="" fill="#FAFBFB" transform="translate(0,0)"/>
<path d="" fill="#FBFBFA" transform="translate(0,0)"/>
<path d="" fill="#FBFBFB" transform="translate(0,0)"/>
<path d="" fill="#FCFBFC" transform="translate(0,0)"/>
<path d="" fill="#FBFCFC" transform="translate(0,0)"/>
<path d="" fill="#FAFAF9" transform="translate(0,0)"/>
<path d="" fill="#FAF8F9" transform="translate(0,0)"/>
<path d="" fill="#FAFAFB" transform="translate(0,0)"/>
<path d="" fill="#FAFBFA" transform="translate(0,0)"/>
<path d="" fill="#FAFDFC" transform="translate(0,0)"/>
<path d="" fill="#FBFBFB" transform="translate(0,0)"/>
<path d="" fill="#FBFBFB" transform="translate(0,0)"/>
<path d="" fill="#FAFBFB" transform="translate(0,0)"/>
<path d="" fill="#FCFBFC" transform="translate(0,0)"/>
<path d="" fill="#F9FBFB" transform="translate(0,0)"/>
<path d="" fill="#F8F7F7" transform="translate(0,0)"/>
<path d="" fill="#F8F8F9" transform="translate(0,0)"/>
<path d="" fill="#F8F8F9" transform="translate(0,0)"/>
<path d="" fill="#F9F9FA" transform="translate(0,0)"/>
<path d="" fill="#FAFAFB" transform="translate(0,0)"/>
<path d="" fill="#FDFBFB" transform="translate(0,0)"/>
<path d="" fill="#F8F8F7" transform="translate(0,0)"/>
<path d="" fill="#FAFBFC" transform="translate(0,0)"/>
<path d="" fill="#F8F9F8" transform="translate(0,0)"/>
<path d="" fill="#FAFBFA" transform="translate(0,0)"/>
<path d="" fill="#FAF9F8" transform="translate(0,0)"/>
<path d="" fill="#FCFBFB" transform="translate(0,0)"/>
<path d="" fill="#F7F7F8" transform="translate(0,0)"/>
<path d="" fill="#F9F8F8" transform="translate(0,0)"/>
<path d="" fill="#FDFBFB" transform="translate(0,0)"/>
<path d="" fill="#FCFCFD" transform="translate(0,0)"/>
<path d="" fill="#FAFBFB" transform="translate(0,0)"/>
<path d="" fill="#FCFDFC" transform="translate(0,0)"/>
<path d="" fill="#FCFBFC" transform="translate(0,0)"/>
<path d="" fill="#FCFBFD" transform="translate(0,0)"/>
<path d="" fill="#FCFCFD" transform="translate(0,0)"/>
<path d="" fill="#FDFCFE" transform="translate(0,0)"/>
<path d="" fill="#FBFAFA" transform="translate(0,0)"/>
<path d="" fill="#FDFCFD" transform="translate(0,0)"/>
<path d="" fill="#FBFBFB" transform="translate(0,0)"/>
<path d="" fill="#FDFCFB" transform="translate(0,0)"/>
<path d="" fill="#FCFCFD" transform="translate(0,0)"/>
<path d="" fill="#FBFAFA" transform="translate(0,0)"/>
<path d="" fill="#FCFBFA" transform="translate(0,0)"/>
<path d="" fill="#F7F9F9" transform="translate(0,0)"/>
<path d="" fill="#F9F8FA" transform="translate(0,0)"/>
<path d="" fill="#FBFCFB" transform="translate(0,0)"/>
<path d="" fill="#FCFDFA" transform="translate(0,0)"/>
<path d="" fill="#F7F9F7" transform="translate(0,0)"/>
<path d="" fill="#F9F8FB" transform="translate(0,0)"/>
<path d="" fill="#FBFAF9" transform="translate(0,0)"/>
<path d="" fill="#FCFAFB" transform="translate(0,0)"/>
<path d="" fill="#FAF8FA" transform="translate(0,0)"/>
<path d="" fill="#F9FAFA" transform="translate(0,0)"/>
<path d="" fill="#F8F7F8" transform="translate(0,0)"/>
<path d="" fill="#FCFAFA" transform="translate(0,0)"/>
<path d="" fill="#FCFBFB" transform="translate(0,0)"/>
<path d="" fill="#F9F7F9" transform="translate(0,0)"/>
<path d="" fill="#F9FAFC" transform="translate(0,0)"/>
<path d="" fill="#FAFCFB" transform="translate(0,0)"/>
<path d="" fill="#F8F8F9" transform="translate(0,0)"/>
<path d="" fill="#FBFBFB" transform="translate(0,0)"/>
<path d="" fill="#FBFBFB" transform="translate(0,0)"/>
<path d="" fill="#FBF8F8" transform="translate(0,0)"/>
<path d="" fill="#F9F8FA" transform="translate(0,0)"/>
<path d="" fill="#FBFAFA" transform="translate(0,0)"/>
<path d="" fill="#F9FAF9" transform="translate(0,0)"/>
<path d="" fill="#F9FAF9" transform="translate(0,0)"/>
<path d="" fill="#FAFAFB" transform="translate(0,0)"/>
<path d="" fill="#F9F8F9" transform="translate(0,0)"/>
<path d="" fill="#FBFBF9" transform="translate(0,0)"/>
<path d="" fill="#FAFAFA" transform="translate(0,0)"/>
<path d="" fill="#FAFAF9" transform="translate(0,0)"/>
<path d="" fill="#FAF8FA" transform="translate(0,0)"/>
<path d="" fill="#FBFAFB" transform="translate(0,0)"/>
<path d="" fill="#F8F9F8" transform="translate(0,0)"/>
<path d="" fill="#F9FBF9" transform="translate(0,0)"/>
<path d="" fill="#FAF8F9" transform="translate(0,0)"/>
<path d="" fill="#FAFAF9" transform="translate(0,0)"/>
<path d="" fill="#F8F8F7" transform="translate(0,0)"/>
<path d="" fill="#FBF8FA" transform="translate(0,0)"/>
<path d="" fill="#F9FBFB" transform="translate(0,0)"/>
<path d="" fill="#F9F9F8" transform="translate(0,0)"/>
<path d="" fill="#FAF9F8" transform="translate(0,0)"/>
<path d="" fill="#FBFCFC" transform="translate(0,0)"/>
<path d="" fill="#FBF9F8" transform="translate(0,0)"/>
<path d="" fill="#FAF9F9" transform="translate(0,0)"/>
<path d="" fill="#FAFAF9" transform="translate(0,0)"/>
<path d="" fill="#F9F9FA" transform="translate(0,0)"/>
<path d="" fill="#FBFCFA" transform="translate(0,0)"/>
<path d="" fill="#FAF9F9" transform="translate(0,0)"/>
<path d="" fill="#FAF8F9" transform="translate(0,0)"/>
<path d="" fill="#F9F9F9" transform="translate(0,0)"/>
<path d="" fill="#F9F9F9" transform="translate(0,0)"/>
<path d="" fill="#F9FAF9" transform="translate(0,0)"/>
<path d="" fill="#F9F8F8" transform="translate(0,0)"/>
<path d="" fill="#F7F8F5" transform="translate(0,0)"/>
<path d="" fill="#F7F7F6" transform="translate(0,0)"/>
<path d="" fill="#F9FBFA" transform="translate(0,0)"/>
<path d="" fill="#FBFEFC" transform="translate(0,0)"/>
<path d="" fill="#FAFBFB" transform="translate(0,0)"/>
<path d="" fill="#FBFAFB" transform="translate(0,0)"/>
<path d="" fill="#FCFBFB" transform="translate(0,0)"/>
<path d="" fill="#F9FBF9" transform="translate(0,0)"/>
<path d="" fill="#FAFAF9" transform="translate(0,0)"/>
<path d="" fill="#F9FAF9" transform="translate(0,0)"/>
<path d="" fill="#FBFAF8" transform="translate(0,0)"/>
<path d="" fill="#FAFAFA" transform="translate(0,0)"/>
<path d="" fill="#FAFCF9" transform="translate(0,0)"/>
<path d="" fill="#FCFBFC" transform="translate(0,0)"/>
<path d="" fill="#FAFBFA" transform="translate(0,0)"/>
<path d="" fill="#FAFBFA" transform="translate(0,0)"/>
<path d="" fill="#FCFBFA" transform="translate(0,0)"/>
<path d="" fill="#FCFDFC" transform="translate(0,0)"/>
<path d="" fill="#FBFBFB" transform="translate(0,0)"/>
<path d="" fill="#FBF9FA" transform="translate(0,0)"/>
<path d="" fill="#FBFBFA" transform="translate(0,0)"/>
<path d="" fill="#FBFCFB" transform="translate(0,0)"/>
<path d="" fill="#FAFAFB" transform="translate(0,0)"/>
<path d="" fill="#F9F9F8" transform="translate(0,0)"/>
<path d="" fill="#F9FBFA" transform="translate(0,0)"/>
<path d="" fill="#FBFBFB" transform="translate(0,0)"/>
<path d="" fill="#FAF9F9" transform="translate(0,0)"/>
<path d="" fill="#FBFAFA" transform="translate(0,0)"/>
<path d="" fill="#FAFBF8" transform="translate(0,0)"/>
<path d="" fill="#F9FBFA" transform="translate(0,0)"/>
<path d="" fill="#FAFAFA" transform="translate(0,0)"/>
<path d="" fill="#FCFCFB" transform="translate(0,0)"/>
<path d="" fill="#FAFAFA" transform="translate(0,0)"/>
<path d="" fill="#FBFAFC" transform="translate(0,0)"/>
<path d="" fill="#F9F9F8" transform="translate(0,0)"/>
<path d="" fill="#F9FAF9" transform="translate(0,0)"/>
<path d="" fill="#F7F9F9" transform="translate(0,0)"/>
<path d="" fill="#F9F9F9" transform="translate(0,0)"/>
<path d="" fill="#F9F9F9" transform="translate(0,0)"/>
<path d="" fill="#FAFAFA" transform="translate(0,0)"/>
<path d="" fill="#F9FAFA" transform="translate(0,0)"/>
<path d="" fill="#F9FBF9" transform="translate(0,0)"/>
<path d="" fill="#F9F9FA" transform="translate(0,0)"/>
<path d="" fill="#F8F9F8" transform="translate(0,0)"/>
<path d="" fill="#F9F9F8" transform="translate(0,0)"/>
<path d="" fill="#F9F8FA" transform="translate(0,0)"/>
<path d="" fill="#F9F9F9" transform="translate(0,0)"/>
<path d="" fill="#F8F9F9" transform="translate(0,0)"/>
<path d="" fill="#F8F8F8" transform="translate(0,0)"/>
<path d="" fill="#F9F9F8" transform="translate(0,0)"/>
<path d="" fill="#FAFAF9" transform="translate(0,0)"/>
<path d="" fill="#FAFAF8" transform="translate(0,0)"/>
<path d="" fill="#F8F9F9" transform="translate(0,0)"/>
<path d="" fill="#FAFBF9" transform="translate(0,0)"/>
<path d="" fill="#FBFCFA" transform="translate(0,0)"/>
<path d="" fill="#F7FAFB" transform="translate(0,0)"/>
<path d="" fill="#F9F8F7" transform="translate(0,0)"/>
<path d="" fill="#F9FAFB" transform="translate(0,0)"/>
<path d="" fill="#FBFAF9" transform="translate(0,0)"/>
<path d="" fill="#F8F9F8" transform="translate(0,0)"/>
<path d="" fill="#F9FAFA" transform="translate(0,0)"/>
<path d="" fill="#F8F8F8" transform="translate(0,0)"/>
<path d="" fill="#F7F7F7" transform="translate(0,0)"/>
<path d="" fill="#F9FBFD" transform="translate(0,0)"/>
<path d="" fill="#F9FAF8" transform="translate(0,0)"/>
<path d="" fill="#F7F9F8" transform="translate(0,0)"/>
<path d="" fill="#F8F8FA" transform="translate(0,0)"/>
<path d="" fill="#F8F8F9" transform="translate(0,0)"/>
<path d="" fill="#F8FBFB" transform="translate(0,0)"/>
<path d="" fill="#F9FBF8" transform="translate(0,0)"/>
<path d="" fill="#F8F9F8" transform="translate(0,0)"/>
<path d="" fill="#F9F8F7" transform="translate(0,0)"/>
<path d="" fill="#F7FAF9" transform="translate(0,0)"/>
<path d="" fill="#FAFCFC" transform="translate(0,0)"/>
<path d="" fill="#F8FAF9" transform="translate(0,0)"/>
<path d="" fill="#F8F9F8" transform="translate(0,0)"/>
<path d="" fill="#FAF9F9" transform="translate(0,0)"/>
<path d="" fill="#F9FAF9" transform="translate(0,0)"/>
<path d="" fill="#FCFBFA" transform="translate(0,0)"/>
<path d="" fill="#FCFAFB" transform="translate(0,0)"/>
<path d="" fill="#FBFBFA" transform="translate(0,0)"/>
<path d="" fill="#FBFBFB" transform="translate(0,0)"/>
<path d="" fill="#FDFCFB" transform="translate(0,0)"/>
<path d="" fill="#FBFCFC" transform="translate(0,0)"/>
<path d="" fill="#FAFAFB" transform="translate(0,0)"/>
<path d="" fill="#FCFDFB" transform="translate(0,0)"/>
<path d="" fill="#FAFAFA" transform="translate(0,0)"/>
<path d="" fill="#FCFCFC" transform="translate(0,0)"/>
<path d="" fill="#FCFDFB" transform="translate(0,0)"/>
<path d="" fill="#FAFCFB" transform="translate(0,0)"/>
<path d="" fill="#FBFCFC" transform="translate(0,0)"/>
<path d="" fill="#FDFCFC" transform="translate(0,0)"/>
<path d="" fill="#FEFDFC" transform="translate(0,0)"/>
<path d="" fill="#FCFDFB" transform="translate(0,0)"/>
<path d="" fill="#FBFBFC" transform="translate(0,0)"/>
<path d="" fill="#FCFDFC" transform="translate(0,0)"/>
<path d="" fill="#FBFAFB" transform="translate(0,0)"/>
</svg>
